<?xml version="1.0" encoding="utf-8"?><svg viewBox="0 0 34 50" xmlns="http://www.w3.org/2000/svg" xmlns:xlink="http://www.w3.org/1999/xlink"><style>:root>svg{display:none}:root>svg:target{display:block}</style><svg fill="none" viewBox="0 0 33 34" id="bucket" xmlns="http://www.w3.org/2000/svg"><path stroke="#fff" stroke-width="2" d="M13 1h7v32h-7zM1 16h7v17H1zM25 8h7v25h-7z"/></svg><svg fill="none" viewBox="0 0 32 24" id="models_distance" xmlns="http://www.w3.org/2000/svg"><path d="M5.389.84A5.395 5.395 0 000 6.23c0 1.472.803 3.395 2.386 5.716a31.88 31.88 0 002.299 2.97.945.945 0 001.408 0 31.866 31.866 0 002.298-2.97c1.584-2.32 2.387-4.244 2.387-5.716A5.395 5.395 0 005.388.84zm0 7.894a2.507 2.507 0 01-2.505-2.505A2.507 2.507 0 015.39 3.724 2.507 2.507 0 017.893 6.23 2.507 2.507 0 015.39 8.734zM22.276 21.27h-2.35a3.024 3.024 0 01-3.021-3.02 4.916 4.916 0 00-4.91-4.91H9.724a35.094 35.094 0 01-1.427 1.89h3.698a3.024 3.024 0 013.02 3.02 4.916 4.916 0 004.91 4.91h3.778a35.045 35.045 0 01-1.427-1.89zM26.611 8.77a5.395 5.395 0 00-5.389 5.39c0 1.472.803 3.395 2.387 5.716a31.876 31.876 0 002.298 2.969.945.945 0 001.409 0 31.82 31.82 0 002.298-2.97C31.197 17.556 32 15.633 32 14.16a5.395 5.395 0 00-5.389-5.388zm0 7.894a2.507 2.507 0 01-2.505-2.504 2.507 2.507 0 012.505-2.505 2.507 2.507 0 012.505 2.505 2.507 2.507 0 01-2.505 2.504z" fill="#919191"/></svg><svg fill="none" viewBox="0 0 26 26" id="models_passangers" xmlns="http://www.w3.org/2000/svg"><path d="M21.639 5.38a2.597 2.597 0 01-2.977-4.257 2.597 2.597 0 013.62.637 2.605 2.605 0 01-.643 3.62zM20.846 19.447L23.4 7.149H26L23.407 19.83a6.495 6.495 0 01-6.422 5.519H7.8v-2.6h9.191a3.9 3.9 0 003.855-3.302z" fill="#919191"/><path d="M7.501 17.549h6.344l1.333-5.33c-2.048 1.157-4.264 2.008-6.695 1.586v-2.763c2.119.397 4.472-.357 6.097-1.618l2.138-1.664c.293-.228.637-.39.995-.494.41-.117.851-.15 1.287-.078l.032.006a2.926 2.926 0 012.38 3.387l-1.762 7.696a3.9 3.9 0 01-3.829 3.172H6.916l-4.966 3.9L0 23.399l7.501-5.85z" fill="#919191"/></svg><svg fill="none" viewBox="0 0 28 22" id="models_speedometer" xmlns="http://www.w3.org/2000/svg"><path d="M25.173 6.427l-1.64 2.466A10.667 10.667 0 0123.24 19H4.76A10.667 10.667 0 0118.773 4.133l2.467-1.64a13.333 13.333 0 00-18.774 17.84 2.666 2.666 0 002.294 1.334h18.466a2.667 2.667 0 002.32-1.334 13.334 13.334 0 00-.36-13.92l-.013.014zm-13.053 9.12a2.668 2.668 0 003.773 0l7.547-11.32-11.32 7.546a2.668 2.668 0 000 3.774z" fill="#919191"/></svg><svg fill="none" viewBox="0 0 34 35" id="search" xmlns="http://www.w3.org/2000/svg"><path d="M12.943 0a12.942 12.942 0 019.82 21.372L34 32.609l-1.408 1.408-11.24-11.24A12.941 12.941 0 1112.943 0zm0 1.991a10.95 10.95 0 100 21.901 10.95 10.95 0 000-21.901z" fill="#fff"/></svg><svg fill="none" viewBox="0 0 23 50" id="slide_arrow" xmlns="http://www.w3.org/2000/svg"><path d="M12.385 0v45.581l9.288-10.749L23 36.192 11.5 49.5 0 36.192l1.327-1.36 9.288 10.75V0h1.77z" fill="#C4C4C4"/></svg><svg fill="none" viewBox="0 0 19 36" id="swiper_arrow" xmlns="http://www.w3.org/2000/svg"><path d="M16.89 36L0 18 16.89 0 19 2.25 4.222 18 19 33.75 16.89 36z" fill="#fff"/></svg></svg>